<svg width="45" height="45" viewBox="0 0 45 45" fill="none" xmlns="http://www.w3.org/2000/svg">
<g clip-path="url(#clip0_2566_264)">
<circle cx="22.5" cy="22.5" r="22.5" fill="#185D35"/>
<path fill-rule="evenodd" clip-rule="evenodd" d="M37.9649 11.6588C38.3888 12.0807 38.6269 12.6529 38.6269 13.2495C38.6269 13.8461 38.3888 14.4183 37.9649 14.8403L19.8762 32.8403C19.4522 33.2621 18.8772 33.499 18.2776 33.499C17.6781 33.499 17.1031 33.2621 16.679 32.8403L7.63471 23.8403C7.22284 23.4159 6.99493 22.8476 7.00009 22.2576C7.00524 21.6677 7.24303 21.1033 7.66226 20.6862C8.08148 20.269 8.64859 20.0324 9.24144 20.0273C9.83428 20.0221 10.4054 20.2489 10.8319 20.6588L18.2776 28.068L34.7677 11.6588C35.1917 11.237 35.7667 11 36.3663 11C36.9659 11 37.5409 11.237 37.9649 11.6588Z" fill="#2ECC71"/>
</g>
<defs>
<clipPath id="clip0_2566_264">
<rect width="45" height="45" fill="white"/>
</clipPath>
</defs>
</svg>
